<?xml version="1.0" encoding="utf-8"?><svg xmlns:xlink="http://www.w3.org/1999/xlink" id="2" image-rendering="auto" baseProfile="basic" version="1.1" x="0px" y="0px" width="150" height="150" xmlns="http://www.w3.org/2000/svg"><g id="Scene_1" overflow="visible"><g id="Symbol_1" transform="matrix(5 0 0 5 50 50)"><g style="display:none;"><g id="Symbol_2" transform="matrix(0.117 0 0 0.116 0.25 0.15)"><animateTransform attributeName="transform" additive="replace" type="translate" repeatCount="indefinite" dur="1.967s" keyTimes="0;0.22;0.237;0.254;0.271;0.288;0.305;0.66;0.661;0.678;0.695;0.712;0.729;0.746;1" values="0.25,0.15;0.25,0.15;2.6,1.75;4.95,3.35;5.75,3.9;6.15,4.2;6.95,4.75;6.95,4.75;6.75,4.75;5.45,3.85;4.15,2.9;2.85,2;1.55,1.05;0.25,0.15;0.25,0.15" calcMode="discrete"/><animateTransform attributeName="transform" additive="sum" type="scale" repeatCount="indefinite" dur="1.967s" keyTimes="0;0.22;0.237;0.254;0.271;0.288;0.305;0.661;0.678;0.695;0.712;0.729;0.746;1" values="0.117,0.116;0.117,0.116;0.135,0.134;0.152,0.152;0.158,0.158;0.162,0.161;0.168,0.167;0.168,0.167;0.158,0.157;0.147,0.147;0.137,0.137;0.127,0.126;0.117,0.116;0.117,0.116" calcMode="discrete"/><path fill="#76E8DA" d="M32.05,-5.45Q28.5,-15.85 21.8,-23.05L3.9,-43.1Q9.9,-33.4 3.6,-19.8 0.4,-13 -3.95,-8.15L-34.25,27.55Q-15.2,47.7 6.15,41.65 16.85,38.65 23.7,31.6 39.2,15.4 32.05,-5.45"/></g><animate attributeName="display" repeatCount="indefinite" dur="1.967s" keyTimes="0;0.22;0.763;1" values="none;inline;none;none"/></g><g style="display:none;"><path fill="#B3BDCD" d="M0.453,-0.002Q0.306,-0.148 0.1,-0.148 -0.106,-0.148 -0.253,-0.002 -0.4,0.148 -0.4,0.353 -0.4,0.559 -0.253,0.705 -0.106,0.852 0.1,0.852 0.306,0.852 0.453,0.705 0.6,0.559 0.6,0.353 0.6,0.148 0.453,-0.002"/><animate attributeName="display" repeatCount="indefinite" dur="1.967s" keyTimes="0;1;1" values="none;inline;none"/></g><g style="display:none;"><path fill="#D3D4D5" d="M2.8,-6.75Q1.65,-7.25 0.45,-7.3 0.2,-7.3 -0.05,-7.3 -1.7,-7.25 -3.05,-6.6 -3.75,-6.25 -4.3,-5.8 -4.7,-5.5 -5.1,-5.1 -7.15,-2.9 -7.1,0.05 -7.05,1.65 -6.35,2.95 -5.8,4.1 -4.85,5.05 -3,6.95 -0.4,7.35 -0.15,7.3 0.05,7.3 2.9,7.05 5,4.95 5.85,4.1 6.35,3.1 7.15,1.65 7.15,-0.1 7.15,-0.4 7.15,-0.65 7.1,-1.3 6.95,-1.95 6.85,-2.25 6.75,-2.55 6.15,-4 5.05,-5.2 4,-6.2 2.8,-6.75"/><animate attributeName="display" repeatCount="indefinite" dur="1.967s" keyTimes="0;0.847;0.864;1" values="none;inline;none;none"/></g><g style="display:none;"><path fill="#CED0D4" d="M2.75,-6.9Q1.55,-7.4 0.35,-7.45 0.1,-7.45 -0.1,-7.45 -1.8,-7.45 -3.15,-6.7 -3.85,-6.35 -4.4,-5.85 -4.8,-5.55 -5.15,-5.15 -7.2,-2.85 -7,0.05L-7,0.1Q-6.9,1.7 -6.2,2.95 -5.6,4.05 -4.65,5 -2.75,6.9 -0.3,7.5 -0.05,7.45 0.15,7.4 2.85,6.9 4.9,4.8 5.75,3.9 6.3,2.95 7.15,1.5 7.15,-0.25 7.15,-0.55 7.15,-0.85 7.1,-1.5 6.95,-2.15 6.85,-2.45 6.7,-2.75 6.1,-4.2 5,-5.35 3.95,-6.35 2.75,-6.9"/><animate attributeName="display" repeatCount="indefinite" dur="1.967s" keyTimes="0;0.831;0.847;1" values="none;inline;none;none"/></g><g style="display:none;"><path fill="#C9CDD3" d="M2.65,-7.15Q1.45,-7.65 0.3,-7.65 0.05,-7.65 -0.2,-7.65 -1.9,-7.6 -3.25,-6.85 -4,-6.45 -4.5,-5.95 -4.9,-5.6 -5.25,-5.2 -7.2,-2.8 -6.9,0.05L-6.9,0.1Q-6.7,1.7 -5.95,2.9 -5.3,4 -4.35,4.95 -2.5,6.85 -0.15,7.7 0.05,7.6 0.25,7.55 2.8,6.7 4.8,4.55 5.6,3.7 6.2,2.75 7.15,1.3 7.15,-0.45 7.15,-0.8 7.15,-1.1 7.1,-1.75 6.9,-2.4 6.8,-2.7 6.7,-3 6.05,-4.45 4.95,-5.55 3.9,-6.6 2.65,-7.15"/><animate attributeName="display" repeatCount="indefinite" dur="1.967s" keyTimes="0;0.814;0.831;1" values="none;inline;none;none"/></g><g style="display:none;"><path fill="#C3C8D1" d="M2.55,-7.4Q1.3,-7.9 0.15,-7.9 -0.1,-7.9 -0.3,-7.9 -2,-7.85 -3.4,-7 -4.15,-6.55 -4.65,-6.05 -5,-5.65 -5.35,-5.25 -7.25,-2.75 -6.8,0.1L-6.8,0.15Q-6.5,1.75 -5.7,2.85 -4.95,3.9 -4,4.9 -2.2,6.8 0,7.9 0.2,7.8 0.4,7.7 2.75,6.5 4.7,4.3 5.5,3.4 6.1,2.45 7.15,1 7.2,-0.75 7.2,-1.05 7.15,-1.35 7.05,-2.05 6.9,-2.7 6.8,-2.95 6.65,-3.25 6,-4.75 4.9,-5.85 3.85,-6.85 2.55,-7.4"/><animate attributeName="display" repeatCount="indefinite" dur="1.967s" keyTimes="0;0.797;0.814;1" values="none;inline;none;none"/></g><g style="display:none;"><path fill="#BBC3CF" d="M2.45,-7.7Q1.15,-8.2 0.05,-8.2 -0.2,-8.2 -0.4,-8.2 -2.15,-8.1 -3.55,-7.2 -4.35,-6.7 -4.8,-6.15 -5.15,-5.75 -5.45,-5.3 -7.3,-2.7 -6.7,0.1L-6.7,0.15Q-6.25,1.75 -5.4,2.75 -4.55,3.8 -3.65,4.8 -1.8,6.7 0.2,8.2 0.35,8.05 0.55,7.9 2.65,6.2 4.55,4 5.35,3.1 6,2.2 7.15,0.75 7.2,-1 7.2,-1.35 7.15,-1.7 7.05,-2.35 6.85,-3 6.75,-3.3 6.65,-3.6 5.95,-5.05 4.85,-6.1 3.8,-7.15 2.45,-7.7"/><animate attributeName="display" repeatCount="indefinite" dur="1.967s" keyTimes="0;0.78;0.797;1" values="none;inline;none;none"/></g><g style="display:none;"><path fill="#B3BDCD" d="M7.15,-2.05Q7.05,-2.75 6.85,-3.4L6.6,-3.95Q5.1,-7 2.3,-8.05 0.95,-8.55 -0.1,-8.5 -2.1,-8.55 -3.7,-7.4 -4.55,-6.85 -4.95,-6.3 -7.5,-3.1 -6.55,0.1 -6.05,1.75 -5.05,2.7L0.4,8.5 5.9,1.85Q7.4,0.15 7.15,-2.05"/><animate attributeName="display" repeatCount="indefinite" dur="1.967s" keyTimes="0;0.763;0.78;1" values="none;inline;none;none"/></g><g style="display:none;"><path fill="#3898F9" d="M6.6,-3.95Q5.1,-7 2.3,-8.05 0.95,-8.55 -0.1,-8.5 -2.1,-8.55 -3.7,-7.4 -4.55,-6.85 -4.95,-6.3 -7.5,-3.1 -6.55,0.1 -6.05,1.75 -5.05,2.7L0.4,8.5 5.9,1.85Q7.4,0.15 7.15,-2.05 7.05,-2.75 6.85,-3.4L6.6,-3.95"/><animate attributeName="display" repeatCount="indefinite" dur="1.967s" keyTimes="0;0.576;0.593;1" values="none;inline;none;none"/></g><g style="display:none;"><path fill="#3898F9" d="M6.85,-3.4L6.6,-3.95Q5.1,-7 2.3,-8.05 0.95,-8.55 -0.1,-8.5 -2.1,-8.55 -3.7,-7.4 -4.55,-6.85 -4.95,-6.3 -7.5,-3.1 -6.55,0.1 -6.05,1.75 -5.05,2.7L0.4,8.5 5.9,1.85Q7.4,0.15 7.15,-2.05 7.05,-2.75 6.85,-3.4"/><animate attributeName="display" repeatCount="indefinite" dur="1.967s" keyTimes="0;0.39;0.576;1" values="none;inline;none;none"/></g><g style="display:none;"><path fill="#519FF0" d="M6.6,-3.95Q5.1,-7 2.3,-8.05 0.95,-8.55 -0.1,-8.5 -2.1,-8.55 -3.7,-7.4 -4.55,-6.85 -4.95,-6.3 -7.5,-3.1 -6.55,0.1 -6.05,1.75 -5.05,2.7L0.4,8.5 5.9,1.85Q7.4,0.15 7.15,-2.05 7.05,-2.75 6.85,-3.4L6.6,-3.95"/><animate attributeName="display" repeatCount="indefinite" dur="1.967s" keyTimes="0;0.373;0.39;0.593;0.61;1" values="none;inline;none;inline;none;none"/></g><g style="display:none;"><path fill="#69A7E7" d="M6.6,-3.95Q5.1,-7 2.3,-8.05 0.95,-8.55 -0.1,-8.5 -2.1,-8.55 -3.7,-7.4 -4.55,-6.85 -4.95,-6.3 -7.5,-3.1 -6.55,0.1 -6.05,1.75 -5.05,2.7L0.4,8.5 5.9,1.85Q7.4,0.15 7.15,-2.05 7.05,-2.75 6.85,-3.4L6.6,-3.95"/><animate attributeName="display" repeatCount="indefinite" dur="1.967s" keyTimes="0;0.356;0.373;0.61;0.627;1" values="none;inline;none;inline;none;none"/></g><g style="display:none;"><path fill="#82AEDF" d="M6.6,-3.95Q5.1,-7 2.3,-8.05 0.95,-8.55 -0.1,-8.5 -2.1,-8.55 -3.7,-7.4 -4.55,-6.85 -4.95,-6.3 -7.5,-3.1 -6.55,0.1 -6.05,1.75 -5.05,2.7L0.4,8.5 5.9,1.85Q7.4,0.15 7.15,-2.05 7.05,-2.75 6.85,-3.4L6.6,-3.95"/><animate attributeName="display" repeatCount="indefinite" dur="1.967s" keyTimes="0;0.339;0.356;0.627;0.644;1" values="none;inline;none;inline;none;none"/></g><g style="display:none;"><path fill="#9AB6D6" d="M6.6,-3.95Q5.1,-7 2.3,-8.05 0.95,-8.55 -0.1,-8.5 -2.1,-8.55 -3.7,-7.4 -4.55,-6.85 -4.95,-6.3 -7.5,-3.1 -6.55,0.1 -6.05,1.75 -5.05,2.7L0.4,8.5 5.9,1.85Q7.4,0.15 7.15,-2.05 7.05,-2.75 6.85,-3.4L6.6,-3.95"/><animate attributeName="display" repeatCount="indefinite" dur="1.967s" keyTimes="0;0.322;0.339;0.644;0.661;1" values="none;inline;none;inline;none;none"/></g><g style="display:none;"><path fill="#B3BDCD" d="M6.6,-3.95Q5.1,-7 2.3,-8.05 0.95,-8.55 -0.1,-8.5 -2.1,-8.55 -3.7,-7.4 -4.55,-6.85 -4.95,-6.3 -7.5,-3.1 -6.55,0.1 -6.05,1.75 -5.05,2.7L0.4,8.5 5.9,1.85Q7.4,0.15 7.15,-2.05 7.05,-2.75 6.85,-3.4L6.6,-3.95"/><animate attributeName="display" repeatCount="indefinite" dur="1.967s" keyTimes="0;0.305;0.322;0.661;0.763;1" values="none;inline;none;inline;none;none"/></g><g style="display:none;"><path fill="#D6D6D6" d="M6.9,-3.95Q5.4,-7 2.6,-8.05 1.25,-8.55 0.2,-8.5 -1.8,-8.55 -3.4,-7.4 -4.25,-6.85 -4.65,-6.3 -7.2,-3.1 -6.25,0.1 -5.75,1.75 -4.75,2.7L0.7,8.5 6.2,1.85Q7.7,0.15 7.45,-2.05 7.35,-2.75 7.15,-3.4L6.9,-3.95"/><animate attributeName="display" repeatCount="indefinite" dur="1.967s" keyTimes="0;0.22;0.305;1" values="none;inline;none;none"/></g><g style="display:none;"><path fill="#D6D6D6" d="M2.65,-7.65Q1.4,-8.15 0.3,-8.1 0.05,-8.1 -0.2,-8.1 -1.9,-8.05 -3.3,-7.15 -4.1,-6.65 -4.55,-6.15 -4.9,-5.75 -5.25,-5.3 -7.1,-2.7 -6.5,0.1L-6.5,0.15Q-6.1,1.75 -5.25,2.8 -4.4,3.85 -3.5,4.8 -1.65,6.7 0.35,8.15 0.55,8 0.7,7.85 2.9,6.25 4.8,4.05 5.6,3.15 6.25,2.25 7.35,0.8 7.4,-0.95 7.4,-1.3 7.35,-1.6 7.3,-2.3 7.1,-2.95 7,-3.2 6.85,-3.5 6.15,-5 5.1,-6.05 4,-7.1 2.65,-7.65"/><animate attributeName="display" repeatCount="indefinite" dur="1.967s" keyTimes="0;0.203;0.22;1" values="none;inline;none;none"/></g><g style="display:none;"><path fill="#D6D6D6" d="M2.75,-7.3Q1.5,-7.8 0.35,-7.8 0.1,-7.8 -0.1,-7.8 -1.8,-7.75 -3.2,-6.95 -3.95,-6.5 -4.45,-6 -4.8,-5.65 -5.15,-5.2 -7.1,-2.8 -6.7,0.05L-6.7,0.1Q-6.45,1.7 -5.65,2.85 -4.95,3.95 -4,4.9 -2.15,6.8 0.1,7.8 0.3,7.75 0.5,7.65 2.9,6.6 4.9,4.4 5.7,3.55 6.3,2.6 7.3,1.15 7.3,-0.6 7.3,-0.95 7.3,-1.25 7.2,-1.9 7.05,-2.55 6.95,-2.85 6.8,-3.15 6.2,-4.6 5.05,-5.7 4.05,-6.75 2.75,-7.3"/><animate attributeName="display" repeatCount="indefinite" dur="1.967s" keyTimes="0;0.186;0.203;1" values="none;inline;none;none"/></g><g style="display:none;"><path fill="#D6D6D6" d="M2.8,-7Q1.6,-7.5 0.4,-7.55 0.15,-7.55 -0.05,-7.55 -1.75,-7.5 -3.1,-6.75 -3.8,-6.4 -4.35,-5.9 -4.75,-5.55 -5.1,-5.15 -7.1,-2.85 -6.9,0.05L-6.9,0.1Q-6.75,1.7 -6,2.9 -5.4,4 -4.45,5 -2.6,6.9 -0.15,7.55 0.05,7.5 0.3,7.45 2.9,6.85 4.95,4.7 5.75,3.85 6.35,2.85 7.25,1.4 7.25,-0.35 7.25,-0.65 7.25,-0.95 7.15,-1.6 7,-2.25 6.9,-2.55 6.8,-2.85 6.2,-4.3 5.05,-5.45 4.05,-6.45 2.8,-7"/><animate attributeName="display" repeatCount="indefinite" dur="1.967s" keyTimes="0;0.169;0.186;1" values="none;inline;none;none"/></g><g style="display:none;"><path fill="#D6D6D6" d="M2.8,-6.75Q1.7,-7.25 0.45,-7.3 0.2,-7.3 -0.05,-7.3 -1.7,-7.3 -3.05,-6.6 -3.7,-6.3 -4.3,-5.8 -4.7,-5.5 -5.1,-5.1 -7.15,-2.85 -7.05,0.05 -7,1.65 -6.3,2.95 -5.75,4.1 -4.8,5.05 -2.9,6.95 -0.35,7.35 -0.1,7.35 0.1,7.3 2.95,7.05 5,4.95 5.85,4.05 6.4,3.1 7.2,1.65 7.2,-0.1 7.2,-0.4 7.2,-0.7 7.15,-1.35 6.95,-2 6.85,-2.3 6.75,-2.6 6.2,-4.05 5.05,-5.2 4.05,-6.2 2.8,-6.75"/><animate attributeName="display" repeatCount="indefinite" dur="1.967s" keyTimes="0;0.153;0.169;1" values="none;inline;none;none"/></g><g style="display:none;"><path fill="#D6D6D6" d="M5.05,-5.05Q2.95,-7.15 0,-7.15 -2.95,-7.15 -5.05,-5.05 -7.15,-2.9 -7.15,0.05 -7.15,3 -5.05,5.1 -2.95,7.2 0,7.2 2.95,7.2 5.05,5.1 7.15,3 7.15,0.05 7.15,-2.9 5.05,-5.05"/><animate attributeName="display" repeatCount="indefinite" dur="1.967s" keyTimes="0;0.136;0.153;0.864;0.881;1" values="none;inline;none;inline;none;none"/></g><g style="display:none;"><path fill="#D0D2D4" d="M4.2,-4.15Q2.45,-5.9 0,-5.9 -2.45,-5.9 -4.2,-4.15 -5.95,-2.35 -5.95,0.1 -5.95,2.55 -4.2,4.3 -2.45,6.05 0,6.05 2.45,6.05 4.2,4.3 5.95,2.55 5.95,0.1 5.95,-2.35 4.2,-4.15"/><animate attributeName="display" repeatCount="indefinite" dur="1.967s" keyTimes="0;0.119;0.136;0.881;0.898;1" values="none;inline;none;inline;none;none"/></g><g style="display:none;"><path fill="#CACDD3" d="M3.45,-3.3Q2.05,-4.75 0.05,-4.75 -1.95,-4.75 -3.4,-3.3 -4.85,-1.85 -4.85,0.15 -4.85,2.15 -3.4,3.6 -1.95,5 0.05,5 2.05,5 3.45,3.6 4.9,2.15 4.9,0.15 4.9,-1.85 3.45,-3.3"/><animate attributeName="display" repeatCount="indefinite" dur="1.967s" keyTimes="0;0.102;0.119;0.898;0.915;1" values="none;inline;none;inline;none;none"/></g><g style="display:none;"><path fill="#C5CAD2" d="M2.8,-2.55Q1.65,-3.7 0.05,-3.7 -1.55,-3.7 -2.7,-2.55 -3.85,-1.4 -3.85,0.2 -3.85,1.8 -2.7,2.95 -1.55,4.05 0.05,4.05 1.65,4.05 2.8,2.95 3.95,1.8 3.95,0.2 3.95,-1.4 2.8,-2.55"/><animate attributeName="display" repeatCount="indefinite" dur="1.967s" keyTimes="0;0.085;0.102;0.915;0.932;1" values="none;inline;none;inline;none;none"/></g><g style="display:none;"><path fill="#C0C6D0" d="M2.2,-1.9Q1.3,-2.75 0.05,-2.75 -1.15,-2.75 -2.05,-1.9 -2.95,-1 -2.95,0.25 -2.95,1.45 -2.05,2.35 -1.15,3.25 0.05,3.25 1.3,3.25 2.2,2.35 3.05,1.45 3.05,0.25 3.05,-1 2.2,-1.9"/><animate attributeName="display" repeatCount="indefinite" dur="1.967s" keyTimes="0;0.068;0.085;0.932;0.949;1" values="none;inline;none;inline;none;none"/></g><g style="display:none;"><path fill="#BCC3CF" d="M1.65,-1.3Q1,-1.95 0.05,-1.95 -0.85,-1.95 -1.5,-1.3 -2.15,-0.65 -2.15,0.25 -2.15,1.2 -1.5,1.85 -0.85,2.5 0.05,2.5 1,2.5 1.65,1.85 2.3,1.2 2.3,0.25 2.3,-0.65 1.65,-1.3"/><animate attributeName="display" repeatCount="indefinite" dur="1.967s" keyTimes="0;0.051;0.068;0.949;0.966;1" values="none;inline;none;inline;none;none"/></g><g style="display:none;"><path fill="#B8C1CE" d="M1.15,-0.8Q0.7,-1.25 0.1,-1.25 -0.55,-1.25 -1,-0.8 -1.45,-0.35 -1.45,0.3 -1.45,0.95 -1,1.4 -0.55,1.85 0.1,1.85 0.7,1.85 1.15,1.4 1.6,0.95 1.6,0.3 1.6,-0.35 1.15,-0.8"/><animate attributeName="display" repeatCount="indefinite" dur="1.967s" keyTimes="0;0.034;0.051;0.966;0.983;1" values="none;inline;none;inline;none;none"/></g><g style="display:none;"><path fill="#B5BFCE" d="M0.75,-0.35Q0.5,-0.65 0.1,-0.65 -0.3,-0.65 -0.6,-0.35 -0.85,-0.05 -0.85,0.35 -0.85,0.7 -0.6,1 -0.3,1.3 0.1,1.3 0.5,1.3 0.75,1 1.05,0.7 1.05,0.35 1.05,-0.05 0.75,-0.35"/><animate attributeName="display" repeatCount="indefinite" dur="1.967s" keyTimes="0;0.017;0.034;0.983;1" values="none;inline;none;inline;none"/></g><g><path fill="#B3BDCD" d="M0.1,0.85Q0.3,0.85 0.45,0.7 0.6,0.55 0.6,0.35 0.6,0.15 0.45,0 0.3,-0.15 0.1,-0.15 -0.1,-0.15 -0.25,0 -0.4,0.15 -0.4,0.35 -0.4,0.55 -0.25,0.7 -0.1,0.85 0.1,0.85"/><animate attributeName="display" repeatCount="indefinite" dur="1.967s" keyTimes="0;0.017;1" values="inline;none;none"/></g><g style="display:none;"><path fill="#FFF" d="M0.75,-1.9Q0.75,-2.25 0.5,-2.5 0.3,-2.75 -0.05,-2.75 -0.4,-2.75 -0.65,-2.5 -0.9,-2.25 -0.9,-1.9 -0.9,-1.55 -0.65,-1.3 -0.4,-1.1 -0.05,-1.1 0.3,-1.1 0.5,-1.3 0.75,-1.55 0.75,-1.9"/><animate attributeName="display" repeatCount="indefinite" dur="1.967s" keyTimes="0;0.644;0.661;1" values="none;inline;none;none"/></g><g style="display:none;"><path fill="#FFF" d="M1.15,-2Q1.15,-2.45 0.8,-2.85 0.45,-3.2 -0.05,-3.2 -0.55,-3.2 -0.9,-2.85 -1.25,-2.45 -1.25,-2 -1.25,-1.5 -0.9,-1.15 -0.55,-0.8 -0.05,-0.8 0.45,-0.8 0.8,-1.15 1.15,-1.5 1.15,-2"/><animate attributeName="display" repeatCount="indefinite" dur="1.967s" keyTimes="0;0.627;0.644;1" values="none;inline;none;none"/></g><g style="display:none;"><path fill="#FFF" d="M1.15,-3.2Q0.7,-3.65 0,-3.65 -0.65,-3.65 -1.15,-3.2 -1.6,-2.7 -1.6,-2.05 -1.6,-1.4 -1.15,-0.9 -0.65,-0.45 0,-0.45 0.7,-0.45 1.15,-0.9 1.6,-1.4 1.6,-2.05 1.6,-2.7 1.15,-3.2"/><animate attributeName="display" repeatCount="indefinite" dur="1.967s" keyTimes="0;0.61;0.627;1" values="none;inline;none;none"/></g><g style="display:none;"><path fill="#FFF" d="M1.5,-3.6Q0.9,-4.2 0.05,-4.2 -0.8,-4.2 -1.4,-3.6 -2,-2.95 -2,-2.15 -2,-1.3 -1.4,-0.7 -0.8,-0.1 0.05,-0.1 0.9,-0.1 1.5,-0.7 2.1,-1.3 2.1,-2.15 2.1,-2.95 1.5,-3.6"/><animate attributeName="display" repeatCount="indefinite" dur="1.967s" keyTimes="0;0.593;0.61;1" values="none;inline;none;none"/></g><g style="display:none;"><path fill="#FFF" d="M2.6,-2.25Q2.6,-3.25 1.85,-4 1.15,-4.75 0.1,-4.75 -0.95,-4.75 -1.7,-4 -2.4,-3.25 -2.4,-2.25 -2.4,-1.2 -1.7,-0.45 -0.95,0.25 0.1,0.25 1.15,0.25 1.85,-0.45 2.6,-1.2 2.6,-2.25"/><animate attributeName="display" repeatCount="indefinite" dur="1.967s" keyTimes="0;0.576;0.593;1" values="none;inline;none;none"/></g><g style="display:none;"><path fill="#FFF" d="M1.85,-4Q1.15,-4.75 0.1,-4.75 -0.95,-4.75 -1.7,-4 -2.4,-3.25 -2.4,-2.25 -2.4,-1.2 -1.7,-0.45 -0.95,0.25 0.1,0.25 1.15,0.25 1.85,-0.45 2.6,-1.2 2.6,-2.25 2.6,-3.25 1.85,-4"/><animate attributeName="display" repeatCount="indefinite" dur="1.967s" keyTimes="0;0.39;0.576;1" values="none;inline;none;none"/></g><g style="display:none;"><path fill="#FFF" d="M1.55,-3.65Q0.95,-4.25 0.05,-4.25 -0.8,-4.25 -1.45,-3.65 -2.05,-3 -2.05,-2.15 -2.05,-1.3 -1.45,-0.65 -0.8,-0.05 0.05,-0.05 0.95,-0.05 1.55,-0.65 2.15,-1.3 2.15,-2.15 2.15,-3 1.55,-3.65"/><animate attributeName="display" repeatCount="indefinite" dur="1.967s" keyTimes="0;0.373;0.39;1" values="none;inline;none;none"/></g><g style="display:none;"><path fill="#FFF" d="M1.2,-3.3Q0.75,-3.8 0,-3.8 -0.7,-3.8 -1.2,-3.3 -1.7,-2.75 -1.7,-2.1 -1.7,-1.4 -1.2,-0.85 -0.7,-0.4 0,-0.4 0.75,-0.4 1.2,-0.85 1.7,-1.4 1.7,-2.1 1.7,-2.75 1.2,-3.3"/><animate attributeName="display" repeatCount="indefinite" dur="1.967s" keyTimes="0;0.356;0.373;1" values="none;inline;none;none"/></g><g style="display:none;"><path fill="#FFF" d="M0.9,-2.9Q0.5,-3.3 0,-3.3 -0.55,-3.3 -0.95,-2.9 -1.3,-2.55 -1.3,-2 -1.3,-1.45 -0.95,-1.1 -0.55,-0.7 0,-0.7 0.5,-0.7 0.9,-1.1 1.3,-1.45 1.3,-2 1.3,-2.55 0.9,-2.9"/><animate attributeName="display" repeatCount="indefinite" dur="1.967s" keyTimes="0;0.339;0.356;1" values="none;inline;none;none"/></g><g style="display:none;"><path fill="#FFF" d="M0.85,-1.95Q0.85,-2.3 0.55,-2.55 0.3,-2.85 -0.05,-2.85 -0.45,-2.85 -0.7,-2.55 -0.95,-2.3 -0.95,-1.95 -0.95,-1.55 -0.7,-1.3 -0.45,-1.05 -0.05,-1.05 0.3,-1.05 0.55,-1.3 0.85,-1.55 0.85,-1.95"/><animate attributeName="display" repeatCount="indefinite" dur="1.967s" keyTimes="0;0.322;0.339;1" values="none;inline;none;none"/></g><g style="display:none;"><path fill="#FFF" d="M0.25,-1.5Q0.4,-1.65 0.4,-1.85 0.4,-2.05 0.25,-2.2 0.1,-2.35 -0.1,-2.35 -0.3,-2.35 -0.45,-2.2 -0.6,-2.05 -0.6,-1.85 -0.6,-1.65 -0.45,-1.5 -0.3,-1.35 -0.1,-1.35 0.1,-1.35 0.25,-1.5"/><animate attributeName="display" repeatCount="indefinite" dur="1.967s" keyTimes="0;0.305;0.322;0.661;0.678;1" values="none;inline;none;inline;none;none"/></g></g></g></svg>