<?xml version="1.0" encoding="utf-8"?><svg xmlns:xlink="http://www.w3.org/1999/xlink" id="BS-OK-loading-2" image-rendering="auto" baseProfile="basic" version="1.1" x="0px" y="0px" width="150" height="150" xmlns="http://www.w3.org/2000/svg"><defs><filter id="filter2" filterUnits="objectBoundingBox" width="100%" height="100%" x="0%" y="0%"><feComponentTransfer in="SourceGraphic" result="colorTrans"><feFuncR type="linear" slope="0.8" intercept="0"><animate attributeName="slope" repeatCount="indefinite" dur="1.967s" keyTimes="0;0.407;0.424;0.441;0.458;0.474;0.491;0.508;1" values="0.8;0.8;0.86;0.9;0.93;0.96;0.98;1;1" calcMode="discrete"/></feFuncR><feFuncG type="linear" slope="0.8" intercept="0"><animate attributeName="slope" repeatCount="indefinite" dur="1.967s" keyTimes="0;0.407;0.424;0.441;0.458;0.474;0.491;0.508;1" values="0.8;0.8;0.86;0.9;0.93;0.96;0.98;1;1" calcMode="discrete"/></feFuncG><feFuncB type="linear" slope="0.8" intercept="0"><animate attributeName="slope" repeatCount="indefinite" dur="1.967s" keyTimes="0;0.407;0.424;0.441;0.458;0.474;0.491;0.508;1" values="0.8;0.8;0.86;0.9;0.93;0.96;0.98;1;1" calcMode="discrete"/></feFuncB></feComponentTransfer></filter><filter id="filter7" filterUnits="objectBoundingBox" width="100%" height="100%" x="0%" y="0%"><feComponentTransfer in="SourceGraphic" result="colorTrans"><feFuncR type="linear" slope="0.65" intercept="0"><animate attributeName="slope" repeatCount="indefinite" dur="1.967s" keyTimes="0;0.339;0.356;0.373;0.39;0.407;1" values="0.65;0.65;0.71;0.76;0.79;0.8;0.8" calcMode="discrete"/></feFuncR><feFuncG type="linear" slope="0.65" intercept="0"><animate attributeName="slope" repeatCount="indefinite" dur="1.967s" keyTimes="0;0.339;0.356;0.373;0.39;0.407;1" values="0.65;0.65;0.71;0.76;0.79;0.8;0.8" calcMode="discrete"/></feFuncG><feFuncB type="linear" slope="0.65" intercept="0"><animate attributeName="slope" repeatCount="indefinite" dur="1.967s" keyTimes="0;0.339;0.356;0.373;0.39;0.407;1" values="0.65;0.65;0.71;0.76;0.79;0.8;0.8" calcMode="discrete"/></feFuncB></feComponentTransfer></filter><symbol id="pin_blue" overflow="visible"><path fill="#3898F9" d="M6.65,-3.4L6.4,-3.95Q4.9,-7 2.1,-8.05 0.75,-8.55 -0.3,-8.5 -2.3,-8.55 -3.9,-7.4 -4.75,-6.85 -5.15,-6.3 -7.7,-3.1 -6.75,0.1 -6.25,1.75 -5.25,2.7L0.2,8.5 5.7,1.85Q7.2,0.15 6.95,-2.05 6.85,-2.75 6.65,-3.4"/><path fill="#FFF" d="M2.5,-1.7Q2.5,-2.7 1.75,-3.45 1.05,-4.2 0,-4.2 -1.05,-4.2 -1.8,-3.45 -2.5,-2.7 -2.5,-1.7 -2.5,-0.65 -1.8,0.1 -1.05,0.8 0,0.8 1.05,0.8 1.75,0.1 2.5,-0.65 2.5,-1.7"/>
</symbol><symbol id="circle" overflow="visible"><path fill="#B3BDCD" d="M0.35,-0.35Q0.2,-0.5 0,-0.5 -0.2,-0.5 -0.35,-0.35 -0.5,-0.2 -0.5,0 -0.5,0.2 -0.35,0.35 -0.2,0.5 0,0.5 0.2,0.5 0.35,0.35 0.5,0.2 0.5,0 0.5,-0.2 0.35,-0.35"/>
</symbol></defs><g id="Scene_1" overflow="visible"><g id="Symbol_1" transform="matrix(5 0 0 5 74.5 73.25)"><g style="display:none;"><use xlink:href="#pin_blue" transform="matrix(1 0 0 1 -2.099 -1.999)" filter="url(#filter7)"><animateTransform attributeName="transform" additive="replace" type="translate" repeatCount="indefinite" dur="1.967s" keyTimes="0;0.339;0.356;0.373;0.39;0.407;1" values="-2.099,-1.999;-2.099,-1.999;-2.099,-3.749;-2.099,-4.999;-2.099,-5.749;-2.099,-5.999;-2.099,-5.999" calcMode="discrete"/></use><animate attributeName="display" repeatCount="indefinite" dur="1.967s" keyTimes="0;0.339;0.424;1" values="none;inline;none;none"/></g><g style="display:none;"><g id="Symbol_2" transform="matrix(0.168 0 0 0.167 1 -0.499)"><animateTransform attributeName="transform" additive="replace" type="translate" repeatCount="indefinite" dur="1.967s" keyTimes="0;0.254;0.271;0.288;0.305;0.322;0.339;0.356;0.373;0.39;0.407;0.576;0.593;0.61;0.627;0.644;0.661;0.678;0.695;0.712;0.729;1" values="1,-0.499;1,-0.499;2.45,0.9;3.6,1.95;4.4,2.75;4.9,3.2;5.05,3.35;4.95,3.25;4.85,3.15;4.75,3.05;4.65,2.95;4.65,2.95;4.85,3.15;4.95,3.25;5.05,3.35;5.05,3.35;4.25,2.6;3.45,1.8;2.6,1.05;1.8,0.25;1,-0.499;1,-0.499" calcMode="discrete"/><animateTransform attributeName="transform" additive="sum" type="scale" repeatCount="indefinite" dur="1.967s" keyTimes="0;1" values="0.168,0.167;0.168,0.167" calcMode="discrete"/><path fill="#76E8DA" d="M32.05,-5.45Q28.5,-15.85 21.8,-23.05L7.05,-39.95Q9.9,-33.4 3.6,-19.8 0.4,-13 -3.95,-8.15L-34.25,27.55Q-15.2,47.7 6.15,41.65 16.85,38.65 23.7,31.6 39.2,15.4 32.05,-5.45"/></g><animate attributeName="display" repeatCount="indefinite" dur="1.967s" keyTimes="0;0.254;0.746;1" values="none;inline;none;none"/></g><g style="display:none;"><use xlink:href="#circle" transform="matrix(14.4 0 0 14.4 0.1 0.05)"><animateTransform attributeName="transform" additive="replace" type="translate" repeatCount="indefinite" dur="1.967s" keyTimes="0;0.746;0.763;0.78;0.796;0.813;0.83;0.847;0.864;1" values="0.1,0.05;0.1,0.05;0.2,0.1;0.2,0.1;0.1,0.05;0.15,0.2;0.15,0.25;0.1,0.3;0.1,0.35;0.1,0.35" calcMode="discrete"/><animateTransform attributeName="transform" additive="sum" type="scale" repeatCount="indefinite" dur="1.967s" keyTimes="0;0.746;0.763;0.78;0.796;0.813;0.83;0.847;0.864;0.881;1" values="14.399,14.399;14.399,14.399;14.732,14.732;14.934,14.934;15,15;9.96,9.96;6.04,6.04;3.24,3.24;1.56,1.56;1,1;1,1" calcMode="discrete"/></use><animate attributeName="display" repeatCount="indefinite" dur="1.967s" keyTimes="0;0.746;1" values="none;inline;none"/></g><g style="display:none;"><path fill="#9AB6D6" d="M4.45,-5.85Q3.4,-6.9 2.1,-7.45 0.95,-7.95 -0.25,-8 -0.45,-8 -0.65,-8 -2.25,-7.95 -3.65,-7.25 -4.35,-6.9 -4.9,-6.4 -5.35,-6.05 -5.7,-5.6 -7.75,-3.35 -7.6,-0.5 -7.5,1.1 -6.8,2.4 -6.15,3.5 -5.2,4.45 -3.25,6.45 -0.8,6.95 -0.6,6.9 -0.4,6.9 2.3,6.45 4.4,4.25 5.2,3.4 5.75,2.45 6.65,0.95 6.65,-0.8 6.65,-1.1 6.65,-1.35 6.6,-2.05 6.45,-2.7 6.35,-2.95 6.2,-3.25 5.65,-4.7 4.45,-5.85"/><animate attributeName="display" repeatCount="indefinite" dur="1.967s" keyTimes="0;0.712;0.729;1" values="none;inline;none;none"/></g><g style="display:none;"><path fill="#82AEDF" d="M3.75,-6.75Q2.7,-7.75 1.4,-8.3 0.2,-8.8 -1,-8.8 -1.2,-8.8 -1.4,-8.8 -3.05,-8.8 -4.45,-8 -5.15,-7.6 -5.7,-7.1 -6.1,-6.7 -6.45,-6.25 -8.45,-3.85 -8.1,-1.05 -7.9,0.55 -7.15,1.8 -6.4,2.85 -5.5,3.8 -3.55,5.8 -1.25,6.65 -1.1,6.55 -0.9,6.5 1.6,5.6 3.6,3.4 4.4,2.55 5,1.6 6,0.15 6,-1.65 6,-1.95 6,-2.25 5.95,-2.9 5.75,-3.55 5.65,-3.85 5.55,-4.15 4.9,-5.6 3.75,-6.75"/><animate attributeName="display" repeatCount="indefinite" dur="1.967s" keyTimes="0;0.695;0.712;1" values="none;inline;none;none"/></g><g style="display:none;"><path fill="#69A7E7" d="M3.05,-7.6Q2,-8.65 0.65,-9.15 -0.6,-9.65 -1.7,-9.65 -1.9,-9.65 -2.1,-9.65 -3.8,-9.6 -5.2,-8.7 -6,-8.25 -6.45,-7.75 -6.9,-7.3 -7.25,-6.85 -9.1,-4.4 -8.65,-1.6 -8.35,0.05 -7.45,1.15 -6.7,2.2 -5.75,3.2 -3.9,5.1 -1.75,6.3 -1.55,6.25 -1.4,6.15 0.85,4.8 2.85,2.55 3.65,1.65 4.3,0.75 5.35,-0.7 5.4,-2.45 5.4,-2.8 5.35,-3.1 5.25,-3.8 5.1,-4.45 5,-4.7 4.85,-5 4.2,-6.5 3.05,-7.6"/><animate attributeName="display" repeatCount="indefinite" dur="1.967s" keyTimes="0;0.678;0.695;1" values="none;inline;none;none"/></g><g style="display:none;"><path fill="#519FF0" d="M4.2,-5.9Q3.45,-7.4 2.35,-8.5 1.3,-9.5 -0.05,-10 -1.35,-10.5 -2.45,-10.45 -2.65,-10.45 -2.85,-10.45 -4.6,-10.45 -6,-9.45 -6.8,-8.95 -7.25,-8.45 -7.65,-7.95 -8,-7.5 -9.8,-4.9 -9.15,-2.15 -8.75,-0.5 -7.8,0.55 -6.95,1.55 -6.05,2.55 -4.2,4.45 -2.2,6 -2.05,5.9 -1.9,5.75 0.15,3.95 2.05,1.7 2.85,0.8 3.55,-0.1 4.7,-1.5 4.75,-3.3 4.75,-3.65 4.7,-4 4.6,-4.65 4.4,-5.3 4.3,-5.6 4.2,-5.9"/><animate attributeName="display" repeatCount="indefinite" dur="1.967s" keyTimes="0;0.661;0.678;1" values="none;inline;none;none"/></g><g style="display:none;"><path fill="#3898F9" d="M3.75,-6.2L3.5,-6.75Q2,-9.8 -0.8,-10.85 -2.15,-11.35 -3.2,-11.3 -5.2,-11.35 -6.8,-10.2 -7.65,-9.65 -8.05,-9.1 -10.6,-5.9 -9.65,-2.7 -9.15,-1.05 -8.15,-0.1L-2.7,5.7 2.8,-0.95Q4.3,-2.65 4.05,-4.85 3.95,-5.55 3.75,-6.2"/><animate attributeName="display" repeatCount="indefinite" dur="1.967s" keyTimes="0;0.644;0.661;1" values="none;inline;none;none"/></g><g style="display:none;"><path fill="#3898F9" d="M3.8,-6.15L3.55,-6.7Q2.05,-9.75 -0.75,-10.8 -2.1,-11.3 -3.15,-11.25 -5.15,-11.3 -6.75,-10.15 -7.6,-9.6 -8,-9.05 -10.55,-5.85 -9.6,-2.65 -9.1,-1 -8.1,-0.05L-2.65,5.75 2.85,-0.9Q4.35,-2.6 4.1,-4.8 4,-5.5 3.8,-6.15"/><animate attributeName="display" repeatCount="indefinite" dur="1.967s" keyTimes="0;0.627;0.644;1" values="none;inline;none;none"/></g><g style="display:none;"><path fill="#3898F9" d="M3.95,-6L3.7,-6.55Q2.2,-9.6 -0.6,-10.65 -1.95,-11.15 -3,-11.1 -5,-11.15 -6.6,-10 -7.45,-9.45 -7.85,-8.9 -10.4,-5.7 -9.45,-2.5 -8.95,-0.85 -7.95,0.1L-2.5,5.9 3,-0.75Q4.5,-2.45 4.25,-4.65 4.15,-5.35 3.95,-6"/><animate attributeName="display" repeatCount="indefinite" dur="1.967s" keyTimes="0;0.61;0.627;1" values="none;inline;none;none"/></g><g style="display:none;"><path fill="#3898F9" d="M4.2,-5.75L3.95,-6.3Q2.45,-9.35 -0.35,-10.4 -1.7,-10.9 -2.75,-10.85 -4.75,-10.9 -6.35,-9.75 -7.2,-9.2 -7.6,-8.65 -10.15,-5.45 -9.2,-2.25 -8.7,-0.6 -7.7,0.35L-2.25,6.15 3.25,-0.5Q4.75,-2.2 4.5,-4.4 4.4,-5.1 4.2,-5.75"/><animate attributeName="display" repeatCount="indefinite" dur="1.967s" keyTimes="0;0.593;0.61;1" values="none;inline;none;none"/></g><g style="display:none;"><path fill="#3898F9" d="M4.55,-5.4L4.3,-5.95Q2.8,-9 0,-10.05 -1.35,-10.55 -2.4,-10.5 -4.4,-10.55 -6,-9.4 -6.85,-8.85 -7.25,-8.3 -9.8,-5.1 -8.85,-1.9 -8.35,-0.25 -7.35,0.7L-1.9,6.5 3.6,-0.15Q5.1,-1.85 4.85,-4.05 4.75,-4.75 4.55,-5.4"/><animate attributeName="display" repeatCount="indefinite" dur="1.967s" keyTimes="0;0.576;0.593;1" values="none;inline;none;none"/></g><g style="display:none;"><g id="PIN" transform="matrix(1 0 0 1 -2.299 -2.199)"><animateTransform attributeName="transform" additive="replace" type="translate" repeatCount="indefinite" dur="1.967s" keyTimes="0;0.339;0.356;0.373;0.39;0.407;1" values="-2.299,-2.199;-2.299,-2.199;-2.249,-2.149;-2.149,-2.049;-2.099,-1.999;-2.049,-1.949;-2.049,-1.949" calcMode="discrete"/><path fill="#B3BDCD" d="M6.95,-2.05Q6.85,-2.75 6.65,-3.4L6.4,-3.95Q4.9,-7 2.1,-8.05 0.75,-8.55 -0.3,-8.5 -2.3,-8.55 -3.9,-7.4 -4.75,-6.85 -5.15,-6.3 -7.7,-3.1 -6.75,0.1 -6.25,1.75 -5.25,2.7L0.2,8.5 5.7,1.85Q7.2,0.15 6.95,-2.05"/></g><animate attributeName="display" repeatCount="indefinite" dur="1.967s" keyTimes="0;0.339;0.576;1" values="none;inline;none;none"/></g><g style="display:none;"><path fill="#B3BDCD" d="M4.75,-5.3L4.5,-5.85Q3,-8.9 0.2,-9.95 -1.15,-10.45 -2.2,-10.4 -4.2,-10.45 -5.8,-9.3 -6.65,-8.75 -7.05,-8.2 -9.6,-5 -8.65,-1.8 -8.15,-0.15 -7.15,0.8L-1.7,6.6 3.8,-0.05Q5.3,-1.75 5.05,-3.95 4.95,-4.65 4.75,-5.3"/><animate attributeName="display" repeatCount="indefinite" dur="1.967s" keyTimes="0;0.322;0.339;1" values="none;inline;none;none"/></g><g style="display:none;"><path fill="#B3BDCD" d="M2.85,-8.15Q1.75,-9.2 0.35,-9.75 -1,-10.25 -2.05,-10.2 -2.25,-10.2 -2.45,-10.2 -4.2,-10.15 -5.65,-9.1 -6.45,-8.55 -6.9,-8.05L-6.9,-8Q-7.25,-7.55 -7.55,-7.1 -9.3,-4.4 -8.5,-1.65L-8.5,-1.55Q-8.05,0 -7.05,0.95 -7,1 -6.95,1.05 -6,2.05 -5.05,3.05 -3.3,4.9 -1.6,6.7 -1.45,6.6 -1.3,6.4 0.55,4.25 2.35,2.05 3.15,1.1 3.95,0.15 5.2,-1.25 5.25,-2.95 5.25,-3.25 5.2,-3.55 5.2,-3.65 5.2,-3.75 5.1,-4.4 4.9,-5 4.9,-5.05 4.9,-5.1 4.8,-5.3 4.7,-5.55 4.7,-5.6 4.65,-5.65 3.9,-7.15 2.85,-8.15"/><animate attributeName="display" repeatCount="indefinite" dur="1.967s" keyTimes="0;0.305;0.322;1" values="none;inline;none;none"/></g><g style="display:none;"><path fill="#B3BDCD" d="M3.3,-7.55Q2.2,-8.6 0.85,-9.15 -0.5,-9.65 -1.55,-9.6 -1.75,-9.6 -1.95,-9.6 -3.7,-9.55 -5.15,-8.55 -5.95,-8.05 -6.35,-7.5L-6.4,-7.5Q-6.75,-7.05 -7.05,-6.6 -8.85,-3.9 -8.15,-1.15L-8.15,-1.1Q-7.7,0.45 -6.8,1.45 -6.75,1.5 -6.7,1.55 -5.8,2.6 -4.85,3.55 -3.05,5.45 -1.25,7.1L-1.2,7.1Q-1.05,6.95 -0.9,6.8 1.05,4.85 2.9,2.65 3.7,1.7 4.45,0.75 5.65,-0.65 5.7,-2.35 5.7,-2.65 5.65,-2.95 5.65,-3.05 5.65,-3.15 5.55,-3.8 5.35,-4.4 5.35,-4.45 5.35,-4.5 5.25,-4.7 5.15,-4.95 5.15,-5 5.1,-5.05 4.35,-6.5 3.3,-7.55"/><animate attributeName="display" repeatCount="indefinite" dur="1.967s" keyTimes="0;0.288;0.305;1" values="none;inline;none;none"/></g><g style="display:none;"><path fill="#B3BDCD" d="M1.65,-8.1L1.6,-8.1Q0.35,-8.6 -0.75,-8.6 -0.95,-8.6 -1.15,-8.6 -2.9,-8.55 -4.3,-7.6 -5.05,-7.15 -5.5,-6.65L-5.55,-6.6Q-5.95,-6.15 -6.25,-5.7 -8.1,-3.15 -7.5,-0.35L-7.5,-0.3Q-7.15,1.2 -6.35,2.25 -6.3,2.35 -6.25,2.4 -5.4,3.4 -4.45,4.4 -2.65,6.25 -0.7,7.7L-0.65,7.7Q-0.45,7.6 -0.3,7.45 1.8,5.85 3.7,3.6 4.5,2.75 5.25,1.8 6.35,0.35 6.4,-1.4 6.4,-1.7 6.35,-2 6.35,-2.1 6.35,-2.15 6.25,-2.75 6.1,-3.35 6.1,-3.4 6.1,-3.45 6,-3.7 5.85,-3.95 5.85,-4 5.85,-4.05 5.15,-5.5 4.05,-6.55 3,-7.55 1.65,-8.1"/><animate attributeName="display" repeatCount="indefinite" dur="1.967s" keyTimes="0;0.271;0.288;1" values="none;inline;none;none"/></g><g style="display:none;"><path fill="#B3BDCD" d="M2.7,-6.7Q1.5,-7.2 0.35,-7.2 0.15,-7.2 -0.05,-7.2 -1.75,-7.15 -3.15,-6.3 -3.9,-5.85 -4.4,-5.35 -4.8,-4.95 -5.15,-4.5 -7.05,-2.05 -6.65,0.75 -6.4,2.35 -5.6,3.55 -4.85,4.6 -3.9,5.55 -2,7.5 0.2,8.55 0.4,8.45 0.55,8.4 2.9,7.25 4.9,5 5.7,4.15 6.35,3.2 7.4,1.75 7.4,0 7.4,-0.35 7.4,-0.65 7.3,-1.3 7.15,-1.95 7.05,-2.25 6.9,-2.55 6.25,-4 5.1,-5.15 4.05,-6.15 2.7,-6.7"/><animate attributeName="display" repeatCount="indefinite" dur="1.967s" keyTimes="0;0.254;0.271;1" values="none;inline;none;none"/></g><g style="display:none;"><path fill="#B3BDCD" d="M0.4,-7.2Q0.2,-7.2 0,-7.2 -1.7,-7.15 -3.1,-6.35 -3.85,-5.9 -4.35,-5.4 -4.75,-5.1 -5.1,-4.7 -7.05,-2.35 -6.8,0.5L-6.8,0.55Q-6.6,2.15 -5.9,3.4 -5.25,4.45 -4.3,5.4 -2.35,7.35 0,8.1 0.2,8 0.35,8 0.4,8 0.45,8 2.9,7.2 4.9,5.1 5,5 5.1,4.9 5.85,4.15 6.4,3.25 7.35,1.8 7.35,0.1 7.35,0 7.35,-0.1 7.35,-0.3 7.35,-0.5 7.3,-1.15 7.15,-1.8 7.05,-2.1 6.9,-2.4 6.3,-3.85 5.15,-5.05 5.1,-5.1 5.05,-5.15 4,-6.15 2.75,-6.7 1.55,-7.15 0.4,-7.2"/><animate attributeName="display" repeatCount="indefinite" dur="1.967s" keyTimes="0;0.237;0.254;1" values="none;inline;none;none"/></g><g style="display:none;"><path fill="#B3BDCD" d="M0.45,-7.15Q0.25,-7.15 0.05,-7.15 -1.65,-7.15 -3.1,-6.35 -3.75,-6 -4.35,-5.5 -4.7,-5.15 -5,-4.8 -7.1,-2.55 -6.95,0.3L-6.95,0.35Q-6.85,1.95 -6.1,3.25 -5.5,4.3 -4.55,5.25 -2.6,7.2 -0.15,7.7 0,7.7 0.2,7.65 0.25,7.65 0.3,7.65 2.9,7.25 4.95,5.2 5.05,5.1 5.15,5 5.9,4.2 6.4,3.35 7.3,1.9 7.35,0.15 7.35,0.05 7.35,0 7.35,-0.2 7.35,-0.4 7.25,-1.1 7.1,-1.75 7.05,-2.05 6.95,-2.35 6.4,-3.8 5.2,-5 5.15,-5.05 5.1,-5.1 4.05,-6.1 2.75,-6.65 1.65,-7.15 0.45,-7.15"/><animate attributeName="display" repeatCount="indefinite" dur="1.967s" keyTimes="0;0.22;0.237;1" values="none;inline;none;none"/></g><g style="display:none;"><path fill="#B3BDCD" d="M0.5,-7.15Q0.3,-7.15 0.1,-7.15 -1.6,-7.15 -3.05,-6.4 -3.75,-6 -4.3,-5.5 -4.65,-5.25 -5,-4.9 -7.1,-2.7 -7.05,0.15L-7.05,0.2Q-7,1.8 -6.25,3.15 -5.75,4.2 -4.8,5.15 -2.8,7.1 -0.25,7.45 -0.1,7.45 0.1,7.45 0.15,7.45 0.2,7.45 2.85,7.25 4.95,5.25 5.05,5.15 5.15,5.05 5.95,4.25 6.45,3.35 7.25,1.9 7.3,0.2 7.3,0.1 7.3,0 7.3,-0.15 7.3,-0.3 7.25,-1 7.1,-1.65 7.05,-1.95 6.95,-2.25 6.4,-3.7 5.25,-4.95 5.2,-5 5.15,-5.05 4.05,-6.1 2.8,-6.65 1.65,-7.1 0.5,-7.15"/><animate attributeName="display" repeatCount="indefinite" dur="1.967s" keyTimes="0;0.203;0.22;1" values="none;inline;none;none"/></g><g style="display:none;"><path fill="#B3BDCD" d="M0.5,-7.15Q0.3,-7.15 0.1,-7.15 -1.6,-7.15 -3.05,-6.4 -3.7,-6.05 -4.3,-5.55 -4.65,-5.3 -4.95,-5 -7.1,-2.8 -7.1,0.1 -7.05,1.75 -6.35,3.1 -5.85,4.15 -4.9,5.1 -2.9,7.05 -0.35,7.3 -0.2,7.3 0,7.3 0.05,7.3 0.1,7.3 2.85,7.25 4.95,5.3 5.05,5.2 5.15,5.1 5.95,4.3 6.45,3.4 7.25,1.95 7.3,0.25 7.3,0.15 7.3,0.05 7.3,-0.1 7.3,-0.25 7.25,-0.95 7.1,-1.6 7.05,-1.9 6.95,-2.2 6.45,-3.65 5.25,-4.9 5.2,-4.95 5.15,-5 4.05,-6.1 2.8,-6.65 1.7,-7.1 0.5,-7.15"/><animate attributeName="display" repeatCount="indefinite" dur="1.967s" keyTimes="0;0.186;0.203;1" values="none;inline;none;none"/></g><g style="display:none;"><path fill="#B3BDCD" d="M5.15,-5Q3,-7.15 0.1,-7.15 -2.8,-7.15 -4.95,-5 -7.1,-2.85 -7.1,0.05 -7.1,2.95 -4.95,5.1 -2.8,7.25 0.1,7.25 3,7.25 5.15,5.1 7.3,2.95 7.3,0.05 7.3,-2.85 5.15,-5"/><animate attributeName="display" repeatCount="indefinite" dur="1.967s" keyTimes="0;0.169;0.186;0.729;0.746;1" values="none;inline;none;inline;none;none"/></g><g><use xlink:href="#circle" transform="matrix(1 0 0 1 0.1 0.35)"><animateTransform attributeName="transform" additive="replace" type="translate" repeatCount="indefinite" dur="1.967s" keyTimes="0;0.017;0.034;0.051;0.068;0.085;0.102;0.136;0.153;1" values="0.1,0.35;0.1,0.25;0.1,0.15;0.1,0.1;0.1,0.05;0.1,0.05;0.2,0.1;0.2,0.1;0.1,0.05;0.1,0.05" calcMode="discrete"/><animateTransform attributeName="transform" additive="sum" type="scale" repeatCount="indefinite" dur="1.967s" keyTimes="0;0.017;0.034;0.051;0.068;0.085;0.102;0.119;0.136;0.153;1" values="1,1;6.04,6.04;9.96,9.96;12.76,12.76;14.442,14.442;15,15;14.848,14.848;14.698,14.698;14.548,14.548;14.399,14.399;14.399,14.399" calcMode="discrete"/></use><animate attributeName="display" repeatCount="indefinite" dur="1.967s" keyTimes="0;0.169;1" values="inline;none;none"/></g><g style="display:none;"><use xlink:href="#pin_blue" transform="matrix(1 0 0 1 -2.099 -5.999)" filter="url(#filter2)"><animateTransform attributeName="transform" additive="replace" type="translate" repeatCount="indefinite" dur="1.967s" keyTimes="0;0.407;0.424;0.441;0.458;0.474;0.491;0.508;0.525;1" values="-2.099,-5.999;-2.099,-5.999;-2.099,-4.949;-2.099,-4.049;-2.099,-3.299;-2.099,-2.749;-2.099,-2.349;-2.099,-2.099;-2.099,-1.999;-2.099,-1.999" calcMode="discrete"/></use><animate attributeName="display" repeatCount="indefinite" dur="1.967s" keyTimes="0;0.407;0.576;1" values="none;inline;none;none"/></g><g style="display:none;"><g id="circle_1" transform="matrix(1 0 0 1 -2.099 -3.699)"><animateTransform attributeName="transform" additive="replace" type="translate" repeatCount="indefinite" dur="1.967s" keyTimes="0;0.576;0.593;0.61;0.627;0.644;0.661;0.678;0.695;0.712;0.729;1" values="-2.099,-3.699;-2.099,-3.699;-2.449,-4.049;-2.699,-4.299;-2.849,-4.449;-2.899,-4.499;-2.299,-3.599;-1.699,-2.699;-1.149,-1.799;-0.549,-0.899;0.05,0;0.05,0" calcMode="discrete"/><animate attributeName="opacity" repeatCount="indefinite" dur="1.967s" keyTimes="0;0.644;0.661;0.678;0.695;0.712;0.729;1" values="1;1;0.8;0.61;0.42;0.23;0.03;0.03" calcMode="discrete"/><path fill="#FFF" d="M1.75,-1.75Q1.05,-2.5 0,-2.5 -1.05,-2.5 -1.8,-1.75 -2.5,-1 -2.5,0 -2.5,1.05 -1.8,1.8 -1.05,2.5 0,2.5 1.05,2.5 1.75,1.8 2.5,1.05 2.5,0 2.5,-1 1.75,-1.75"/></g><animate attributeName="display" repeatCount="indefinite" dur="1.967s" keyTimes="0;0.576;0.746;1" values="none;inline;none;none"/></g></g></g></svg>